<svg xmlns="http://www.w3.org/2000/svg" viewBox="0 0 200 160">
  <!-- Night sky background -->
  <rect x="0" y="0" width="200" height="160" rx="12" fill="#0D1B2A"/>
  <rect x="0" y="0" width="200" height="160" rx="12" fill="#0D47A1" opacity="0.18"/>

  <!-- Background glow blobs -->
  <circle cx="50" cy="60" r="55" fill="#1565C0" opacity="0.15"/>
  <circle cx="150" cy="50" r="45" fill="#1976D2" opacity="0.12"/>

  <!-- Stars -->
  <circle cx="18" cy="18" r="1.5" fill="#9FA8DA"/>
  <circle cx="42" cy="10" r="1" fill="#C5CAE9"/>
  <circle cx="68" cy="22" r="1.5" fill="#9FA8DA"/>
  <circle cx="85" cy="8" r="1" fill="#9FA8DA"/>
  <circle cx="112" cy="14" r="1.5" fill="#C5CAE9"/>
  <circle cx="135" cy="6" r="1" fill="#9FA8DA"/>
  <circle cx="158" cy="18" r="1.5" fill="#9FA8DA"/>
  <circle cx="182" cy="10" r="1" fill="#C5CAE9"/>
  <circle cx="195" cy="30" r="1" fill="#9FA8DA"/>
  <circle cx="8" cy="45" r="1" fill="#C5CAE9"/>
  <circle cx="175" cy="38" r="1.5" fill="#9FA8DA"/>

  <!-- === CRESCENT MOON (top right) === -->
  <circle cx="168" cy="28" r="18" fill="#FFF9C4"/>
  <!-- Moon cutout circle to create crescent -->
  <circle cx="178" cy="22" r="15" fill="#0D1B2A"/>

  <!-- Dark ground strip -->
  <rect x="0" y="128" width="200" height="32" fill="#37474F"/>
  <rect x="0" y="126" width="200" height="5" fill="#455A64"/>

  <!-- === BUILDINGS === -->

  <!-- Building 1 (far left, medium) -->
  <rect x="4" y="85" width="28" height="45" rx="2" fill="#1565C0"/>
  <!-- B1 windows -->
  <rect x="8" y="90" width="6" height="5" rx="1" fill="#FFF9C4"/>
  <rect x="17" y="90" width="6" height="5" rx="1" fill="#90CAF9"/>
  <rect x="8" y="99" width="6" height="5" rx="1" fill="#90CAF9"/>
  <rect x="17" y="99" width="6" height="5" rx="1" fill="#FFF9C4"/>
  <rect x="8" y="108" width="6" height="5" rx="1" fill="#90CAF9"/>
  <rect x="17" y="108" width="6" height="5" rx="1" fill="#90CAF9"/>
  <rect x="8" y="117" width="6" height="5" rx="1" fill="#FFF9C4"/>
  <rect x="17" y="117" width="6" height="5" rx="1" fill="#90CAF9"/>

  <!-- Building 2 (left, tall — center-left) -->
  <rect x="30" y="50" width="36" height="80" rx="2" fill="#0D47A1"/>
  <!-- Antenna -->
  <rect x="46" y="34" width="3" height="18" rx="1" fill="#78909C"/>
  <!-- Beacon dot -->
  <circle cx="47" cy="32" r="4" fill="#EF5350"/>
  <circle cx="47" cy="32" r="2" fill="#FF8A80"/>
  <!-- B2 windows -->
  <rect x="34" y="56" width="7" height="6" rx="1" fill="#FFF9C4"/>
  <rect x="45" y="56" width="7" height="6" rx="1" fill="#BBDEFB"/>
  <rect x="56" y="56" width="6" height="6" rx="1" fill="#FFF9C4"/>
  <rect x="34" y="67" width="7" height="6" rx="1" fill="#BBDEFB"/>
  <rect x="45" y="67" width="7" height="6" rx="1" fill="#FFF9C4"/>
  <rect x="56" y="67" width="6" height="6" rx="1" fill="#BBDEFB"/>
  <rect x="34" y="78" width="7" height="6" rx="1" fill="#FFF9C4"/>
  <rect x="45" y="78" width="7" height="6" rx="1" fill="#BBDEFB"/>
  <rect x="56" y="78" width="6" height="6" rx="1" fill="#FFF9C4"/>
  <rect x="34" y="89" width="7" height="6" rx="1" fill="#BBDEFB"/>
  <rect x="45" y="89" width="7" height="6" rx="1" fill="#FFF9C4"/>
  <rect x="56" y="89" width="6" height="6" rx="1" fill="#BBDEFB"/>
  <rect x="34" y="100" width="7" height="6" rx="1" fill="#FFF9C4"/>
  <rect x="45" y="100" width="7" height="6" rx="1" fill="#BBDEFB"/>
  <rect x="56" y="100" width="6" height="6" rx="1" fill="#FFF9C4"/>
  <rect x="34" y="111" width="7" height="6" rx="1" fill="#BBDEFB"/>
  <rect x="45" y="111" width="7" height="6" rx="1" fill="#FFF9C4"/>
  <rect x="56" y="111" width="6" height="6" rx="1" fill="#BBDEFB"/>

  <!-- Building 3 (center, medium-wide) -->
  <rect x="64" y="70" width="32" height="60" rx="2" fill="#1976D2"/>
  <!-- B3 windows -->
  <rect x="68" y="76" width="8" height="6" rx="1" fill="#FFF9C4"/>
  <rect x="79" y="76" width="8" height="6" rx="1" fill="#90CAF9"/>
  <rect x="68" y="86" width="8" height="6" rx="1" fill="#90CAF9"/>
  <rect x="79" y="86" width="8" height="6" rx="1" fill="#FFF9C4"/>
  <rect x="68" y="96" width="8" height="6" rx="1" fill="#FFF9C4"/>
  <rect x="79" y="96" width="8" height="6" rx="1" fill="#90CAF9"/>
  <rect x="68" y="106" width="8" height="6" rx="1" fill="#90CAF9"/>
  <rect x="79" y="106" width="8" height="6" rx="1" fill="#FFF9C4"/>
  <rect x="68" y="116" width="8" height="6" rx="1" fill="#FFF9C4"/>
  <rect x="79" y="116" width="8" height="6" rx="1" fill="#90CAF9"/>

  <!-- Building 4 (center-right, tallest) -->
  <rect x="94" y="42" width="40" height="88" rx="2" fill="#42A5F5"/>
  <!-- B4 windows -->
  <rect x="99" y="48" width="9" height="7" rx="1" fill="#FFF9C4"/>
  <rect x="112" y="48" width="9" height="7" rx="1" fill="#BBDEFB"/>
  <rect x="124" y="48" width="6" height="7" rx="1" fill="#FFF9C4"/>
  <rect x="99" y="59" width="9" height="7" rx="1" fill="#BBDEFB"/>
  <rect x="112" y="59" width="9" height="7" rx="1" fill="#FFF9C4"/>
  <rect x="124" y="59" width="6" height="7" rx="1" fill="#BBDEFB"/>
  <rect x="99" y="70" width="9" height="7" rx="1" fill="#FFF9C4"/>
  <rect x="112" y="70" width="9" height="7" rx="1" fill="#BBDEFB"/>
  <rect x="124" y="70" width="6" height="7" rx="1" fill="#FFF9C4"/>
  <rect x="99" y="81" width="9" height="7" rx="1" fill="#BBDEFB"/>
  <rect x="112" y="81" width="9" height="7" rx="1" fill="#FFF9C4"/>
  <rect x="124" y="81" width="6" height="7" rx="1" fill="#BBDEFB"/>
  <rect x="99" y="92" width="9" height="7" rx="1" fill="#FFF9C4"/>
  <rect x="112" y="92" width="9" height="7" rx="1" fill="#BBDEFB"/>
  <rect x="124" y="92" width="6" height="7" rx="1" fill="#FFF9C4"/>
  <rect x="99" y="103" width="9" height="7" rx="1" fill="#BBDEFB"/>
  <rect x="112" y="103" width="9" height="7" rx="1" fill="#FFF9C4"/>
  <rect x="124" y="103" width="6" height="7" rx="1" fill="#BBDEFB"/>
  <rect x="99" y="114" width="9" height="7" rx="1" fill="#FFF9C4"/>
  <rect x="112" y="114" width="9" height="7" rx="1" fill="#BBDEFB"/>

  <!-- Building 5 (right, indigo, medium) -->
  <rect x="132" y="62" width="30" height="68" rx="2" fill="#5C6BC0"/>
  <!-- B5 windows -->
  <rect x="136" y="68" width="7" height="6" rx="1" fill="#FFF9C4"/>
  <rect x="147" y="68" width="7" height="6" rx="1" fill="#90CAF9"/>
  <rect x="136" y="78" width="7" height="6" rx="1" fill="#90CAF9"/>
  <rect x="147" y="78" width="7" height="6" rx="1" fill="#FFF9C4"/>
  <rect x="136" y="88" width="7" height="6" rx="1" fill="#FFF9C4"/>
  <rect x="147" y="88" width="7" height="6" rx="1" fill="#90CAF9"/>
  <rect x="136" y="98" width="7" height="6" rx="1" fill="#90CAF9"/>
  <rect x="147" y="98" width="7" height="6" rx="1" fill="#FFF9C4"/>
  <rect x="136" y="108" width="7" height="6" rx="1" fill="#FFF9C4"/>
  <rect x="147" y="108" width="7" height="6" rx="1" fill="#90CAF9"/>

  <!-- Building 6 (far right, short) -->
  <rect x="160" y="90" width="36" height="38" rx="2" fill="#1976D2"/>
  <!-- B6 windows -->
  <rect x="164" y="95" width="8" height="6" rx="1" fill="#FFF9C4"/>
  <rect x="175" y="95" width="8" height="6" rx="1" fill="#90CAF9"/>
  <rect x="186" y="95" width="6" height="6" rx="1" fill="#FFF9C4"/>
  <rect x="164" y="105" width="8" height="6" rx="1" fill="#90CAF9"/>
  <rect x="175" y="105" width="8" height="6" rx="1" fill="#FFF9C4"/>
  <rect x="186" y="105" width="6" height="6" rx="1" fill="#90CAF9"/>
  <rect x="164" y="115" width="8" height="6" rx="1" fill="#FFF9C4"/>
  <rect x="175" y="115" width="8" height="6" rx="1" fill="#90CAF9"/>
</svg>
